<svg width="210" height="230" viewBox="0 0 210 230" fill="none" xmlns="http://www.w3.org/2000/svg">
<rect x="61" y="111" width="73" height="56" rx="14" fill="#FCCA46"/>
<rect x="76" y="148" width="58" height="42" rx="2" fill="#FCCA46"/>
<rect x="76" y="194" width="58" height="13" rx="2" fill="#FCCA46"/>
<rect x="76" y="211" width="58" height="13" rx="2" fill="#FCCA46"/>
<path d="M56.5 83L73.3875 129.5H39.6125L56.5 83Z" fill="#FCCA46"/>
<path d="M132.246 167L116 128H149C136.941 143.556 135.012 151.993 132.246 167Z" fill="#FCCA46"/>
<rect x="112" y="207" width="6" height="4" fill="#FCCA46"/>
<rect x="100" y="222" width="10" height="8" rx="2" fill="#FCCA46"/>
<ellipse cx="105" cy="96.5" rx="55" ry="55.5" fill="#FCCA46"/>
<path d="M112 208L111 207H119L118 208V210L119 211H111L112 210V208Z" fill="#FCCA46"/>
<rect x="101" width="8" height="24" rx="4" fill="#FCCA46"/>
<rect width="8.01749" height="24.0525" rx="4.00874" transform="matrix(0.705565 0.708646 -0.705565 0.708646 183.485 24.1048)" fill="#FCCA46"/>
<path d="M190 98C187.791 98 186 96.2091 186 94C186 91.7909 187.791 90 190 90H206C208.209 90 210 91.7909 210 94C210 96.2091 208.209 98 206 98H190Z" fill="#FCCA46"/>
<rect width="8.01749" height="24.0525" rx="4.00874" transform="matrix(-0.705565 0.708646 0.705565 0.708646 26.5147 24.1048)" fill="#FCCA46"/>
<path d="M20 98C22.2091 98 24 96.2091 24 94C24 91.7909 22.2091 90 20 90H4C1.79086 90 0 91.7909 0 94C0 96.2091 1.79086 98 4 98H20Z" fill="#FCCA46"/>
<circle cx="8" cy="8" r="6" transform="matrix(-1 0 0 1 137 73)" stroke="black" stroke-width="4"/>
<path d="M111 110.5C111 114.206 108.201 117 105 117C101.799 117 99 114.206 99 110.5C99 106.794 101.799 104 105 104C108.201 104 111 106.794 111 110.5Z" stroke="black" stroke-width="4"/>
<circle cx="81" cy="81" r="6" stroke="black" stroke-width="4"/>
<path d="M81 88V140.759H93V190" stroke="black" stroke-width="6"/>
<path d="M105 118V190" stroke="black" stroke-width="6"/>
<path d="M129 88V140.759H117V190" stroke="black" stroke-width="6"/>
</svg>
